<?xml version="1.0" encoding="UTF-8" standalone="no"?><svg xmlns="http://www.w3.org/2000/svg" xmlns:xlink="http://www.w3.org/1999/xlink" contentScriptType="application/ecmascript" contentStyleType="text/css" height="789px" preserveAspectRatio="none" style="width:189px;height:789px;" version="1.1" viewBox="0 0 189 789" width="189px" zoomAndPan="magnify"><defs><filter height="300%" id="f78ans9crw1y1" width="300%" x="-1" y="-1"><feGaussianBlur result="blurOut" stdDeviation="2.0"/><feColorMatrix in="blurOut" result="blurOut2" type="matrix" values="0 0 0 0 0 0 0 0 0 0 0 0 0 0 0 0 0 0 .4 0"/><feOffset dx="4.0" dy="4.0" in="blurOut2" result="blurOut3"/><feBlend in="SourceGraphic" in2="blurOut3" mode="normal"/></filter></defs><g><!--MD5=[3fd616f346a44cd59a91eb10b19e157c]
class User--><rect codeLine="3" fill="#FEFECE" filter="url(#f78ans9crw1y1)" height="150.4375" id="User" style="stroke: #A80036; stroke-width: 1.5;" width="154" x="14" y="7"/><ellipse cx="72.25" cy="23" fill="#ADD1B2" rx="11" ry="11" style="stroke: #A80036; stroke-width: 1.0;"/><path d="M71.0469,23.875 L72.5,23.875 L72.5,23.9844 C72.5,24.3906 72.5313,24.5469 72.6094,24.7031 C72.7656,24.9531 73.0469,25.1094 73.3438,25.1094 C73.5938,25.1094 73.8594,24.9688 74.0156,24.75 C74.1406,24.5938 74.1719,24.4375 74.1719,23.9844 L74.1719,22.0625 C74.1719,21.9063 74.1719,21.8594 74.1563,21.7031 C74.0938,21.2344 73.7813,20.9219 73.3281,20.9219 C73.0781,20.9219 72.8125,21.0625 72.6406,21.2813 C72.5313,21.4531 72.5,21.6094 72.5,22.0625 L72.5,22.1875 L71.0469,22.1875 L71.0469,19.7813 L75.0313,19.7813 L75.0313,20.6406 C75.0313,21.0469 75.0625,21.2188 75.1406,21.375 C75.3125,21.625 75.5938,21.7813 75.875,21.7813 C76.1406,21.7813 76.4063,21.6406 76.5781,21.4219 C76.6875,21.25 76.7188,21.1094 76.7188,20.6406 L76.7188,18.0938 L69.0938,18.0938 C68.6563,18.0938 68.5313,18.1094 68.375,18.2031 C68.125,18.3594 67.9688,18.6563 67.9688,18.9375 C67.9688,19.2188 68.1094,19.4688 68.3281,19.6406 C68.4844,19.75 68.6719,19.7813 69.0938,19.7813 L69.3438,19.7813 L69.3438,26.2969 L69.0938,26.2969 C68.6875,26.2969 68.5313,26.3125 68.375,26.4219 C68.125,26.5938 67.9688,26.8594 67.9688,27.1563 C67.9688,27.4219 68.1094,27.6719 68.3281,27.8281 C68.4688,27.9531 68.7031,28 69.0938,28 L77.0938,28 L77.0938,25.4219 C77.0938,24.9844 77.0625,24.8438 76.9844,24.6875 C76.8125,24.4375 76.5313,24.2813 76.25,24.2813 C75.9844,24.2813 75.7188,24.3906 75.5469,24.6406 C75.4375,24.7969 75.4063,24.9375 75.4063,25.4219 L75.4063,26.2969 L71.0469,26.2969 L71.0469,23.875 Z " fill="#000000"/><text fill="#000000" font-family="sans-serif" font-size="12" lengthAdjust="spacingAndGlyphs" textLength="29" x="92.75" y="27.1543">User</text><line style="stroke: #A80036; stroke-width: 1.5;" x1="15" x2="167" y1="39" y2="39"/><ellipse cx="25" cy="50" fill="#000000" rx="3" ry="3" style="stroke: #000000; stroke-width: 1.0;"/><text fill="#000000" font-family="sans-serif" font-size="11" lengthAdjust="spacingAndGlyphs" textLength="31" x="34" y="53.2104">id: Int</text><ellipse cx="25" cy="62.8047" fill="#000000" rx="3" ry="3" style="stroke: #000000; stroke-width: 1.0;"/><text fill="#000000" font-family="sans-serif" font-size="11" lengthAdjust="spacingAndGlyphs" textLength="72" x="34" y="66.0151">email: String</text><ellipse cx="25" cy="75.6094" fill="#000000" rx="3" ry="3" style="stroke: #000000; stroke-width: 1.0;"/><text fill="#000000" font-family="sans-serif" font-size="11" lengthAdjust="spacingAndGlyphs" textLength="93" x="34" y="78.8198">password: String</text><text fill="#000000" font-family="sans-serif" font-size="11" lengthAdjust="spacingAndGlyphs" textLength="79" x="34" y="91.6245">name: String?</text><ellipse cx="25" cy="101.2188" fill="#000000" rx="3" ry="3" style="stroke: #000000; stroke-width: 1.0;"/><text fill="#000000" font-family="sans-serif" font-size="11" lengthAdjust="spacingAndGlyphs" textLength="128" x="34" y="104.4292">updated_at: DateTime</text><ellipse cx="25" cy="114.0234" fill="#000000" rx="3" ry="3" style="stroke: #000000; stroke-width: 1.0;"/><text fill="#000000" font-family="sans-serif" font-size="11" lengthAdjust="spacingAndGlyphs" textLength="125" x="34" y="117.2339">created_at: DateTime</text><text fill="#000000" font-family="sans-serif" font-size="11" lengthAdjust="spacingAndGlyphs" textLength="97" x="34" y="130.0386">createdPair: Pair?</text><text fill="#000000" font-family="sans-serif" font-size="11" lengthAdjust="spacingAndGlyphs" textLength="109" x="34" y="142.8433">joinnedToPair: Pair?</text><line style="stroke: #A80036; stroke-width: 1.5;" x1="15" x2="167" y1="149.4375" y2="149.4375"/><!--MD5=[220f5f32351d35cc72380e3951491ed2]
class Pair--><rect codeLine="14" fill="#FEFECE" filter="url(#f78ans9crw1y1)" height="163.2422" id="Pair" style="stroke: #A80036; stroke-width: 1.5;" width="168" x="7" y="217"/><ellipse cx="76.25" cy="233" fill="#ADD1B2" rx="11" ry="11" style="stroke: #A80036; stroke-width: 1.0;"/><path d="M75.0469,233.875 L76.5,233.875 L76.5,233.9844 C76.5,234.3906 76.5313,234.5469 76.6094,234.7031 C76.7656,234.9531 77.0469,235.1094 77.3438,235.1094 C77.5938,235.1094 77.8594,234.9688 78.0156,234.75 C78.1406,234.5938 78.1719,234.4375 78.1719,233.9844 L78.1719,232.0625 C78.1719,231.9063 78.1719,231.8594 78.1563,231.7031 C78.0938,231.2344 77.7813,230.9219 77.3281,230.9219 C77.0781,230.9219 76.8125,231.0625 76.6406,231.2813 C76.5313,231.4531 76.5,231.6094 76.5,232.0625 L76.5,232.1875 L75.0469,232.1875 L75.0469,229.7813 L79.0313,229.7813 L79.0313,230.6406 C79.0313,231.0469 79.0625,231.2188 79.1406,231.375 C79.3125,231.625 79.5938,231.7813 79.875,231.7813 C80.1406,231.7813 80.4063,231.6406 80.5781,231.4219 C80.6875,231.25 80.7188,231.1094 80.7188,230.6406 L80.7188,228.0938 L73.0938,228.0938 C72.6563,228.0938 72.5313,228.1094 72.375,228.2031 C72.125,228.3594 71.9688,228.6563 71.9688,228.9375 C71.9688,229.2188 72.1094,229.4688 72.3281,229.6406 C72.4844,229.75 72.6719,229.7813 73.0938,229.7813 L73.3438,229.7813 L73.3438,236.2969 L73.0938,236.2969 C72.6875,236.2969 72.5313,236.3125 72.375,236.4219 C72.125,236.5938 71.9688,236.8594 71.9688,237.1563 C71.9688,237.4219 72.1094,237.6719 72.3281,237.8281 C72.4688,237.9531 72.7031,238 73.0938,238 L81.0938,238 L81.0938,235.4219 C81.0938,234.9844 81.0625,234.8438 80.9844,234.6875 C80.8125,234.4375 80.5313,234.2813 80.25,234.2813 C79.9844,234.2813 79.7188,234.3906 79.5469,234.6406 C79.4375,234.7969 79.4063,234.9375 79.4063,235.4219 L79.4063,236.2969 L75.0469,236.2969 L75.0469,233.875 Z " fill="#000000"/><text fill="#000000" font-family="sans-serif" font-size="12" lengthAdjust="spacingAndGlyphs" textLength="21" x="96.75" y="237.1543">Pair</text><line style="stroke: #A80036; stroke-width: 1.5;" x1="8" x2="174" y1="249" y2="249"/><ellipse cx="18" cy="260" fill="#000000" rx="3" ry="3" style="stroke: #000000; stroke-width: 1.0;"/><text fill="#000000" font-family="sans-serif" font-size="11" lengthAdjust="spacingAndGlyphs" textLength="31" x="27" y="263.2104">id: Int</text><ellipse cx="18" cy="272.8047" fill="#000000" rx="3" ry="3" style="stroke: #000000; stroke-width: 1.0;"/><text fill="#000000" font-family="sans-serif" font-size="11" lengthAdjust="spacingAndGlyphs" textLength="65" x="27" y="276.0151">pair1_id: Int</text><text fill="#000000" font-family="sans-serif" font-size="11" lengthAdjust="spacingAndGlyphs" textLength="71" x="27" y="288.8198">pair2_id: Int?</text><ellipse cx="18" cy="298.4141" fill="#000000" rx="3" ry="3" style="stroke: #000000; stroke-width: 1.0;"/><text fill="#000000" font-family="sans-serif" font-size="11" lengthAdjust="spacingAndGlyphs" textLength="73" x="27" y="301.6245">creator: User</text><text fill="#000000" font-family="sans-serif" font-size="11" lengthAdjust="spacingAndGlyphs" textLength="78" x="27" y="314.4292">joinner: User?</text><text fill="#000000" font-family="sans-serif" font-size="11" lengthAdjust="spacingAndGlyphs" textLength="142" x="27" y="327.2339">connection_code: String?</text><ellipse cx="18" cy="336.8281" fill="#000000" rx="3" ry="3" style="stroke: #000000; stroke-width: 1.0;"/><text fill="#000000" font-family="sans-serif" font-size="11" lengthAdjust="spacingAndGlyphs" textLength="128" x="27" y="340.0386">updated_at: DateTime</text><ellipse cx="18" cy="349.6328" fill="#000000" rx="3" ry="3" style="stroke: #000000; stroke-width: 1.0;"/><text fill="#000000" font-family="sans-serif" font-size="11" lengthAdjust="spacingAndGlyphs" textLength="125" x="27" y="352.8433">created_at: DateTime</text><text fill="#000000" font-family="sans-serif" font-size="11" lengthAdjust="spacingAndGlyphs" textLength="62" x="27" y="365.6479">lists: List[]?</text><line style="stroke: #A80036; stroke-width: 1.5;" x1="8" x2="174" y1="372.2422" y2="372.2422"/><!--MD5=[3d4177ac58b4411586d067f34e84928f]
class List--><rect codeLine="26" fill="#FEFECE" filter="url(#f78ans9crw1y1)" height="137.6328" id="List" style="stroke: #A80036; stroke-width: 1.5;" width="154" x="14" y="440"/><ellipse cx="76.75" cy="456" fill="#ADD1B2" rx="11" ry="11" style="stroke: #A80036; stroke-width: 1.0;"/><path d="M75.5469,456.875 L77,456.875 L77,456.9844 C77,457.3906 77.0313,457.5469 77.1094,457.7031 C77.2656,457.9531 77.5469,458.1094 77.8438,458.1094 C78.0938,458.1094 78.3594,457.9688 78.5156,457.75 C78.6406,457.5938 78.6719,457.4375 78.6719,456.9844 L78.6719,455.0625 C78.6719,454.9063 78.6719,454.8594 78.6563,454.7031 C78.5938,454.2344 78.2813,453.9219 77.8281,453.9219 C77.5781,453.9219 77.3125,454.0625 77.1406,454.2813 C77.0313,454.4531 77,454.6094 77,455.0625 L77,455.1875 L75.5469,455.1875 L75.5469,452.7813 L79.5313,452.7813 L79.5313,453.6406 C79.5313,454.0469 79.5625,454.2188 79.6406,454.375 C79.8125,454.625 80.0938,454.7813 80.375,454.7813 C80.6406,454.7813 80.9063,454.6406 81.0781,454.4219 C81.1875,454.25 81.2188,454.1094 81.2188,453.6406 L81.2188,451.0938 L73.5938,451.0938 C73.1563,451.0938 73.0313,451.1094 72.875,451.2031 C72.625,451.3594 72.4688,451.6563 72.4688,451.9375 C72.4688,452.2188 72.6094,452.4688 72.8281,452.6406 C72.9844,452.75 73.1719,452.7813 73.5938,452.7813 L73.8438,452.7813 L73.8438,459.2969 L73.5938,459.2969 C73.1875,459.2969 73.0313,459.3125 72.875,459.4219 C72.625,459.5938 72.4688,459.8594 72.4688,460.1563 C72.4688,460.4219 72.6094,460.6719 72.8281,460.8281 C72.9688,460.9531 73.2031,461 73.5938,461 L81.5938,461 L81.5938,458.4219 C81.5938,457.9844 81.5625,457.8438 81.4844,457.6875 C81.3125,457.4375 81.0313,457.2813 80.75,457.2813 C80.4844,457.2813 80.2188,457.3906 80.0469,457.6406 C79.9375,457.7969 79.9063,457.9375 79.9063,458.4219 L79.9063,459.2969 L75.5469,459.2969 L75.5469,456.875 Z " fill="#000000"/><text fill="#000000" font-family="sans-serif" font-size="12" lengthAdjust="spacingAndGlyphs" textLength="20" x="97.25" y="460.1543">List</text><line style="stroke: #A80036; stroke-width: 1.5;" x1="15" x2="167" y1="472" y2="472"/><ellipse cx="25" cy="483" fill="#000000" rx="3" ry="3" style="stroke: #000000; stroke-width: 1.0;"/><text fill="#000000" font-family="sans-serif" font-size="11" lengthAdjust="spacingAndGlyphs" textLength="31" x="34" y="486.2104">id: Int</text><ellipse cx="25" cy="495.8047" fill="#000000" rx="3" ry="3" style="stroke: #000000; stroke-width: 1.0;"/><text fill="#000000" font-family="sans-serif" font-size="11" lengthAdjust="spacingAndGlyphs" textLength="73" x="34" y="499.0151">name: String</text><ellipse cx="25" cy="508.6094" fill="#000000" rx="3" ry="3" style="stroke: #000000; stroke-width: 1.0;"/><text fill="#000000" font-family="sans-serif" font-size="11" lengthAdjust="spacingAndGlyphs" textLength="83" x="34" y="511.8198">belongs_to: Int</text><ellipse cx="25" cy="521.4141" fill="#000000" rx="3" ry="3" style="stroke: #000000; stroke-width: 1.0;"/><text fill="#000000" font-family="sans-serif" font-size="11" lengthAdjust="spacingAndGlyphs" textLength="86" x="34" y="524.6245">belongsTo: Pair</text><ellipse cx="25" cy="534.2188" fill="#000000" rx="3" ry="3" style="stroke: #000000; stroke-width: 1.0;"/><text fill="#000000" font-family="sans-serif" font-size="11" lengthAdjust="spacingAndGlyphs" textLength="128" x="34" y="537.4292">updated_at: DateTime</text><ellipse cx="25" cy="547.0234" fill="#000000" rx="3" ry="3" style="stroke: #000000; stroke-width: 1.0;"/><text fill="#000000" font-family="sans-serif" font-size="11" lengthAdjust="spacingAndGlyphs" textLength="125" x="34" y="550.2339">created_at: DateTime</text><text fill="#000000" font-family="sans-serif" font-size="11" lengthAdjust="spacingAndGlyphs" textLength="79" x="34" y="563.0386">items: Item[]?</text><line style="stroke: #A80036; stroke-width: 1.5;" x1="15" x2="167" y1="569.6328" y2="569.6328"/><!--MD5=[44a1b4afaef76c16e6c9ec4990ad0c8d]
class Item--><rect codeLine="36" fill="#FEFECE" filter="url(#f78ans9crw1y1)" height="137.6328" id="Item" style="stroke: #A80036; stroke-width: 1.5;" width="154" x="14" y="638"/><ellipse cx="73.75" cy="654" fill="#ADD1B2" rx="11" ry="11" style="stroke: #A80036; stroke-width: 1.0;"/><path d="M72.5469,654.875 L74,654.875 L74,654.9844 C74,655.3906 74.0313,655.5469 74.1094,655.7031 C74.2656,655.9531 74.5469,656.1094 74.8438,656.1094 C75.0938,656.1094 75.3594,655.9688 75.5156,655.75 C75.6406,655.5938 75.6719,655.4375 75.6719,654.9844 L75.6719,653.0625 C75.6719,652.9063 75.6719,652.8594 75.6563,652.7031 C75.5938,652.2344 75.2813,651.9219 74.8281,651.9219 C74.5781,651.9219 74.3125,652.0625 74.1406,652.2813 C74.0313,652.4531 74,652.6094 74,653.0625 L74,653.1875 L72.5469,653.1875 L72.5469,650.7813 L76.5313,650.7813 L76.5313,651.6406 C76.5313,652.0469 76.5625,652.2188 76.6406,652.375 C76.8125,652.625 77.0938,652.7813 77.375,652.7813 C77.6406,652.7813 77.9063,652.6406 78.0781,652.4219 C78.1875,652.25 78.2188,652.1094 78.2188,651.6406 L78.2188,649.0938 L70.5938,649.0938 C70.1563,649.0938 70.0313,649.1094 69.875,649.2031 C69.625,649.3594 69.4688,649.6563 69.4688,649.9375 C69.4688,650.2188 69.6094,650.4688 69.8281,650.6406 C69.9844,650.75 70.1719,650.7813 70.5938,650.7813 L70.8438,650.7813 L70.8438,657.2969 L70.5938,657.2969 C70.1875,657.2969 70.0313,657.3125 69.875,657.4219 C69.625,657.5938 69.4688,657.8594 69.4688,658.1563 C69.4688,658.4219 69.6094,658.6719 69.8281,658.8281 C69.9688,658.9531 70.2031,659 70.5938,659 L78.5938,659 L78.5938,656.4219 C78.5938,655.9844 78.5625,655.8438 78.4844,655.6875 C78.3125,655.4375 78.0313,655.2813 77.75,655.2813 C77.4844,655.2813 77.2188,655.3906 77.0469,655.6406 C76.9375,655.7969 76.9063,655.9375 76.9063,656.4219 L76.9063,657.2969 L72.5469,657.2969 L72.5469,654.875 Z " fill="#000000"/><text fill="#000000" font-family="sans-serif" font-size="12" lengthAdjust="spacingAndGlyphs" textLength="26" x="94.25" y="658.1543">Item</text><line style="stroke: #A80036; stroke-width: 1.5;" x1="15" x2="167" y1="670" y2="670"/><ellipse cx="25" cy="681" fill="#000000" rx="3" ry="3" style="stroke: #000000; stroke-width: 1.0;"/><text fill="#000000" font-family="sans-serif" font-size="11" lengthAdjust="spacingAndGlyphs" textLength="31" x="34" y="684.2104">id: Int</text><ellipse cx="25" cy="693.8047" fill="#000000" rx="3" ry="3" style="stroke: #000000; stroke-width: 1.0;"/><text fill="#000000" font-family="sans-serif" font-size="11" lengthAdjust="spacingAndGlyphs" textLength="73" x="34" y="697.0151">name: String</text><ellipse cx="25" cy="706.6094" fill="#000000" rx="3" ry="3" style="stroke: #000000; stroke-width: 1.0;"/><text fill="#000000" font-family="sans-serif" font-size="11" lengthAdjust="spacingAndGlyphs" textLength="67" x="34" y="709.8198">quantity: Int</text><ellipse cx="25" cy="719.4141" fill="#000000" rx="3" ry="3" style="stroke: #000000; stroke-width: 1.0;"/><text fill="#000000" font-family="sans-serif" font-size="11" lengthAdjust="spacingAndGlyphs" textLength="83" x="34" y="722.6245">belongs_to: Int</text><ellipse cx="25" cy="732.2188" fill="#000000" rx="3" ry="3" style="stroke: #000000; stroke-width: 1.0;"/><text fill="#000000" font-family="sans-serif" font-size="11" lengthAdjust="spacingAndGlyphs" textLength="79" x="34" y="735.4292">belongTo: List</text><ellipse cx="25" cy="745.0234" fill="#000000" rx="3" ry="3" style="stroke: #000000; stroke-width: 1.0;"/><text fill="#000000" font-family="sans-serif" font-size="11" lengthAdjust="spacingAndGlyphs" textLength="128" x="34" y="748.2339">updated_at: DateTime</text><ellipse cx="25" cy="757.8281" fill="#000000" rx="3" ry="3" style="stroke: #000000; stroke-width: 1.0;"/><text fill="#000000" font-family="sans-serif" font-size="11" lengthAdjust="spacingAndGlyphs" textLength="125" x="34" y="761.0386">created_at: DateTime</text><line style="stroke: #A80036; stroke-width: 1.5;" x1="15" x2="167" y1="767.6328" y2="767.6328"/><!--MD5=[466f24ccc692009d68def7d84432d0e6]
link User to Pair--><path codeLine="46" d="M65.3333,165.114 C65.3333,165.114 65.3333,208.87 65.3333,208.87 " fill="none" id="User-Pair" style="stroke: #A80036; stroke-width: 1.0; stroke-dasharray: 7.0,7.0;"/><line style="stroke: #A80036; stroke-width: 1.0;" x1="65.3333" x2="65.3333" y1="205.87" y2="216.87"/><ellipse cx="65.3333" cy="205.87" fill="none" rx="4" ry="4" style="stroke: #A80036; stroke-width: 1.0;"/><line style="stroke: #A80036; stroke-width: 1.0;" x1="69.3333" x2="61.3333" y1="212.87" y2="212.87"/><line style="stroke: #A80036; stroke-width: 1.0;" x1="61.3333" x2="69.3333" y1="161.114" y2="161.114"/><line style="stroke: #A80036; stroke-width: 1.0;" x1="61.3333" x2="69.3333" y1="164.114" y2="164.114"/><line style="stroke: #A80036; stroke-width: 1.0;" x1="65.3333" x2="65.3333" y1="165.114" y2="157.114"/><!--MD5=[466f24ccc692009d68def7d84432d0e6]
link User to Pair--><path codeLine="47" d="M116.667,165.114 C116.667,165.114 116.667,208.87 116.667,208.87 " fill="none" id="User-Pair-1" style="stroke: #A80036; stroke-width: 1.0; stroke-dasharray: 7.0,7.0;"/><line style="stroke: #A80036; stroke-width: 1.0;" x1="116.667" x2="116.667" y1="205.87" y2="216.87"/><ellipse cx="116.667" cy="205.87" fill="none" rx="4" ry="4" style="stroke: #A80036; stroke-width: 1.0;"/><line style="stroke: #A80036; stroke-width: 1.0;" x1="120.667" x2="112.667" y1="212.87" y2="212.87"/><line style="stroke: #A80036; stroke-width: 1.0;" x1="112.667" x2="120.667" y1="161.114" y2="161.114"/><line style="stroke: #A80036; stroke-width: 1.0;" x1="112.667" x2="120.667" y1="164.114" y2="164.114"/><line style="stroke: #A80036; stroke-width: 1.0;" x1="116.667" x2="116.667" y1="165.114" y2="157.114"/><!--MD5=[61d312fc49ce2e4a0a861690ac2d102d]
link Pair to List--><path codeLine="48" d="M91,388.186 C91,388.186 91,431.992 91,431.992 " fill="none" id="Pair-List" style="stroke: #A80036; stroke-width: 1.0; stroke-dasharray: 7.0,7.0;"/><line style="stroke: #A80036; stroke-width: 1.0;" x1="91" x2="97" y1="431.992" y2="439.992"/><line style="stroke: #A80036; stroke-width: 1.0;" x1="91" x2="85" y1="431.992" y2="439.992"/><line style="stroke: #A80036; stroke-width: 1.0;" x1="91" x2="91" y1="431.992" y2="439.992"/><ellipse cx="91" cy="425.992" fill="none" rx="4" ry="4" style="stroke: #A80036; stroke-width: 1.0;"/><line style="stroke: #A80036; stroke-width: 1.0;" x1="87" x2="95" y1="384.186" y2="384.186"/><line style="stroke: #A80036; stroke-width: 1.0;" x1="87" x2="95" y1="387.186" y2="387.186"/><line style="stroke: #A80036; stroke-width: 1.0;" x1="91" x2="91" y1="388.186" y2="380.186"/><!--MD5=[826bd02e7b974d9453c197239e4f01bd]
link List to Item--><path codeLine="49" d="M91,586.251 C91,586.251 91,629.788 91,629.788 " fill="none" id="List-Item" style="stroke: #A80036; stroke-width: 1.0; stroke-dasharray: 7.0,7.0;"/><line style="stroke: #A80036; stroke-width: 1.0;" x1="91" x2="97" y1="629.788" y2="637.788"/><line style="stroke: #A80036; stroke-width: 1.0;" x1="91" x2="85" y1="629.788" y2="637.788"/><line style="stroke: #A80036; stroke-width: 1.0;" x1="91" x2="91" y1="629.788" y2="637.788"/><ellipse cx="91" cy="623.788" fill="none" rx="4" ry="4" style="stroke: #A80036; stroke-width: 1.0;"/><line style="stroke: #A80036; stroke-width: 1.0;" x1="87" x2="95" y1="582.251" y2="582.251"/><line style="stroke: #A80036; stroke-width: 1.0;" x1="87" x2="95" y1="585.251" y2="585.251"/><line style="stroke: #A80036; stroke-width: 1.0;" x1="91" x2="91" y1="586.251" y2="578.251"/><!--MD5=[c56288cee17d8e49c55be25066e620a1]
@startuml
skinparam linetype ortho

entity User {
  * id: Int
  * email: String
  * password: String
  name: String?
  * updated_at: DateTime
  * created_at: DateTime
  createdPair: Pair?
  joinnedToPair: Pair?
}

entity Pair {
  * id: Int
  * pair1_id: Int
  pair2_id: Int?
  * creator: User
  joinner: User?
  connection_code: String?
  * updated_at: DateTime
  * created_at: DateTime
  lists: List[]?
}

entity List {
  * id: Int
  * name: String
  * belongs_to: Int
  * belongsTo: Pair
  * updated_at: DateTime
  * created_at: DateTime
  items: Item[]?
}

entity Item {
  * id: Int
  * name: String
  * quantity: Int
  * belongs_to: Int
  * belongTo: List
  * updated_at: DateTime
  * created_at: DateTime
}

User ||..o| Pair
User ||..o| Pair
Pair ||..o{ List
List ||..o{ Item
@enduml

PlantUML version 1.2020.20beta9(Unknown compile time)
(GPL source distribution)
Java Runtime: Java(TM) SE Runtime Environment
JVM: Java HotSpot(TM) 64-Bit Server VM
Default Encoding: UTF-8
Language: en
Country: US
--></g></svg>